<svg width="504" height="130" viewBox="0 0 504 130" fill="none" xmlns="http://www.w3.org/2000/svg">
<path fill-rule="evenodd" clip-rule="evenodd" d="M79.9577 117.483C79.1122 119.462 78.5598 122.148 79.8117 123.828C82.5674 127.528 99.9076 118.035 102.332 114.769C92.62 119.246 92.1963 115.247 95.534 111.001C95.675 110.821 95.8247 110.643 95.982 110.465C94.7917 111.052 93.5791 111.64 92.3358 112.239C88.0361 114.096 83.968 115.874 79.9577 117.483Z" fill="#18354A"/>
<path fill-rule="evenodd" clip-rule="evenodd" d="M40.7457 69.5678C44.6232 63.5415 52.4942 54.2355 59.7338 47.5251C51.6039 51.1403 44.6201 52.6917 36.8525 54.354C33.4573 55.0809 29.9154 55.8966 26.3635 56.2939C24.4548 58.6907 22.8831 60.8804 21.1447 63.3554C19.0577 66.328 17.4041 69.2791 15.5571 72.3185C16.4503 72.4179 17.3467 72.4784 18.2377 72.5104C23.2955 72.6913 28.2315 72.2497 33.048 71.3161C35.6286 70.7927 38.1947 70.2085 40.7457 69.5678Z" fill="#18354A"/>
<path fill-rule="evenodd" clip-rule="evenodd" d="M72.8759 97.9733C76.0339 92.7671 83.4141 84.1401 90.5401 77.5664C89.3694 78.1213 88.2561 78.6466 87.2192 79.1387C77.0151 84.069 65.0601 88.6059 53.4048 91.952C49.9612 96.5657 47.7346 100.722 45.8867 105.698C51.885 104.661 58.0093 102.986 63.4999 101.207C66.7265 100.154 69.8123 99.1036 72.8759 97.9733Z" fill="#18354A"/>
<path fill-rule="evenodd" clip-rule="evenodd" d="M43.5254 123.499C46.2736 125.961 49.0102 127.528 52.6974 128.303C58.6901 129.563 65.0904 129.57 70.731 128.773C66.4898 129.182 61.5936 125.598 62.2841 121.562C61.5725 121.723 60.8556 121.875 60.1322 122.019C54.884 123.059 49.0682 123.668 43.5254 123.499Z" fill="#18354A"/>
<path fill-rule="evenodd" clip-rule="evenodd" d="M23.307 107.714C22.0195 105.278 23.3715 97.9856 25.4297 95.2883C24.4498 95.321 23.4705 95.3287 22.497 95.3082C18.2564 95.2189 13.336 94.573 8.91261 92.458C8.66896 94.2551 9.21542 97.8901 9.98916 99.7228C10.9697 100.947 12.3415 102.789 15.9982 104.913C18.2674 106.23 20.7386 107.127 23.307 107.714Z" fill="#18354A"/>
<path fill-rule="evenodd" clip-rule="evenodd" d="M81.9823 9.03223C79.729 9.30867 71.0063 15.0436 68.3036 17.0006C64.1121 20.0347 58.6296 24.0687 54.7373 27.7476C62.6418 23.6404 78.9728 13.6326 81.9823 9.03223Z" fill="#18354A"/>
<path fill-rule="evenodd" clip-rule="evenodd" d="M115.282 34.9297C110.737 35.7937 104.631 40.394 102.293 42.0634C99.6697 43.9366 92.2966 49.4055 90.0391 51.7075C98.8597 46.4383 111.923 37.8578 115.282 34.9297Z" fill="#18354A"/>
<path fill-rule="evenodd" clip-rule="evenodd" d="M124.726 71.5356L124.695 70.8604C121.973 72.6204 120.21 73.905 117.5 75.9245C116.397 76.747 114.734 77.8961 113.175 79.0665C117.35 76.5209 121.338 73.9478 124.726 71.5356Z" fill="#18354A"/>
<path fill-rule="evenodd" clip-rule="evenodd" d="M8.91221 92.4576C18.2401 96.9175 30.7794 95.3577 40.7012 93.1998C55.7499 89.929 72.6044 84.0185 86.3036 77.3996C97.0114 72.3177 115.789 63.7343 123.405 54.8025C121.999 47.3742 119.288 41.217 115.282 34.9297C110.986 38.6737 90.8237 51.6607 83.9536 55.1482C67.8453 63.3238 50.7869 69.7763 33.048 73.3739C28.2315 74.3075 23.2955 74.7491 18.2377 74.5682C14.5007 74.4341 10.667 73.7991 7.38457 71.8919C3.66694 69.7311 2.42165 66.2045 2.53238 58.5758C-0.0284848 66.6472 0.553786 87.2136 8.91221 92.4576Z" fill="#18354A"/>
<path fill-rule="evenodd" clip-rule="evenodd" d="M60.1328 122.019C71.1458 119.837 80.7067 115.569 91.8135 110.771C98.5758 107.514 104.431 104.572 110.72 100.448C112.776 99.0992 117.487 95.9685 119.023 93.7474C121.729 88.4529 124.74 77.1617 124.727 71.5356C110.994 81.3145 87.3983 93.7298 81.4407 96.3088C75.3724 98.9358 69.6411 100.969 63.3796 103.013C56.0713 105.381 47.6403 107.564 39.8781 108.304C32.061 109.049 23.054 109.008 15.9983 104.913C12.3415 102.789 10.9698 100.947 9.98926 99.7231C11.7575 104.297 18.4297 111.964 23.3709 115.745C26.4196 118.077 29.896 120.684 33.6096 121.935C35.7364 122.652 37.5599 123.014 39.3487 123.212C46.0628 123.952 53.5451 123.325 60.1328 122.019Z" fill="#18354A"/>
<path fill-rule="evenodd" clip-rule="evenodd" d="M35.8843 52.417C43.712 50.7418 50.7438 49.1797 58.9547 45.5042C67.6365 41.4632 91.5637 29.7819 99.6223 18.069C93.4884 13.4534 87.7933 11.1948 81.9828 9.03223C78.6283 14.1598 58.7221 26.0063 52.3833 28.9115C44.5269 32.5132 36.2323 35.4021 29.0476 36.2173C12.4614 38.3289 18.5987 23.101 30.4967 17.9336C24.61 19.244 16.6956 23.7711 11.8574 30.3208C5.53093 38.8848 3.93126 50.0572 13.6205 53.4052C20.8345 55.898 28.6886 53.9575 35.8843 52.417Z" fill="#18354A"/>
<path fill-rule="evenodd" clip-rule="evenodd" d="M28.7289 11.6528C28.0068 11.3721 27.4903 10.9744 27.2467 10.4182L27.0566 9.98697L27.5176 9.67263C28.3925 9.07125 29.2156 8.97662 30.4157 8.83792L51.8376 6.34433C52.7326 6.23876 53.7031 6.09021 54.6212 5.87043C55.499 5.66038 56.3148 5.38689 56.9392 5.02681L63.7681 1.08598C64.7693 0.507803 65.8878 0.158588 67.0868 0.0430326C68.2565 -0.0701085 69.4996 0.0394111 70.7806 0.376822L71.259 0.50331L71.1987 0.95983C71.1232 1.53197 70.8904 2.24268 70.4534 2.92146C70.0952 3.47891 69.5978 4.01806 68.9373 4.44722L60.9743 9.63279C59.401 10.6576 59.1997 11.2092 58.8339 12.2126C58.7331 12.4895 58.6223 12.7944 58.5014 13.0883C58.1989 13.8239 57.8591 14.6319 57.5265 15.4224C56.4232 18.0441 55.3805 20.5225 54.4451 23.4848L54.2375 24.1428L53.5341 23.9933C53.4911 23.9841 53.4094 23.9749 53.3242 23.9643C52.5344 23.8718 51.4234 23.7415 51.2256 21.6561L50.8261 17.4568C50.8193 17.3857 50.8156 17.2627 50.8109 17.1342L50.8112 17.1314C50.8034 16.8805 50.7931 16.5809 50.7043 16.3922C50.6321 16.2374 50.365 16.1987 49.57 16.5592C47.7331 17.3914 46.3827 18.0098 44.9848 18.649C42.5565 19.6983 34.5482 21.451 29.077 21.3251C29.6634 21.1201 30.2251 20.9119 30.755 20.7034L28.3915 19.6705L29.6547 19.0837L32.1227 18.0085L28.4993 16.4919C27.9917 16.2394 28.3204 15.8934 28.755 15.7479L32.9742 14.2409C33.1302 14.1854 33.3109 14.1708 33.4646 14.1875L41.1405 14.8306L44.4989 13.1176C44.3922 13.0562 43.8628 12.7831 43.6668 12.7455C42.5281 12.5275 32.4771 12.2591 31.1056 12.1648C30.179 12.0612 29.3684 11.9013 28.7289 11.6528Z" fill="#18354A"/>
<path d="M489.086 31.183C491.947 32.2619 494.485 33.8805 496.699 36.0365C501.13 40.3527 503.347 47.2339 503.347 56.679V88.9335H489.734V57.35C489.734 54.6879 489.454 52.3543 488.894 50.3516C488.344 48.3782 487.521 46.7204 486.427 45.3802C485.348 44.0571 484.013 43.063 482.426 42.3999C480.819 41.7289 478.942 41.3931 476.798 41.3931C474.51 41.3931 472.474 41.7882 470.694 42.5764C468.921 43.361 467.39 44.5394 466.101 46.1098C464.803 47.6924 463.827 49.5828 463.173 51.7778C462.513 53.993 462.183 56.5221 462.183 59.3637V88.9335H448.682V30.2409H460.498L461.681 36.8425C463.709 34.6047 466.079 32.8823 468.79 31.6751C471.943 30.2714 475.544 29.5698 479.593 29.5698C483.07 29.5698 486.234 30.1077 489.086 31.183Z" fill="#18354A"/>
<path d="M402.178 88.6765C399.577 88.0573 397.137 87.1244 394.859 85.8806C392.576 84.6338 390.554 83.1299 388.794 81.3702C387.035 79.6105 385.531 77.5889 384.284 75.3066C383.041 73.0297 382.108 70.5782 381.489 67.9558C380.87 65.3382 380.561 62.5485 380.561 59.5872C380.561 56.6613 380.87 53.8984 381.489 51.2998C382.108 48.6981 383.041 46.2576 384.284 43.9801C385.528 41.702 387.032 39.6761 388.794 37.9048C390.556 36.1329 392.577 34.6151 394.854 33.3524C397.127 32.0915 399.569 31.1452 402.176 30.515C404.781 29.8855 407.546 29.5698 410.466 29.5698C413.386 29.5698 416.151 29.8855 418.756 30.515C421.363 31.1452 423.804 32.0915 426.079 33.3524C428.356 34.6157 430.375 36.1329 432.137 37.9048C433.899 39.6761 435.403 41.702 436.647 43.9801C437.891 46.2576 438.824 48.6981 439.443 51.2998C440.062 53.8984 440.371 56.6613 440.371 59.5872C440.371 62.5485 440.061 65.3388 439.443 67.9558C438.823 70.5788 437.89 73.0297 436.647 75.3066C435.403 77.5841 433.9 79.6051 432.137 81.3672C430.372 83.133 428.351 84.6369 426.073 85.8806C421.529 88.3626 416.325 89.6046 410.466 89.6046C407.54 89.6046 404.776 89.295 402.178 88.6765ZM417.051 76.626C418.992 75.784 420.703 74.5165 422.181 72.824C425.158 69.4175 426.647 65.0049 426.647 59.5872C426.647 56.8664 426.272 54.4015 425.524 52.1943C424.781 49.9974 423.666 48.049 422.181 46.3504C420.703 44.6585 418.992 43.3903 417.051 42.5484C415.104 41.7039 412.908 41.2814 410.466 41.2814C408.026 41.2814 405.836 41.7039 403.898 42.549C401.964 43.3909 400.267 44.6585 398.808 46.348C397.341 48.0478 396.24 49.9962 395.505 52.1912C394.766 54.3979 394.397 56.8634 394.397 59.5872C394.397 62.311 394.766 64.7765 395.505 66.9831C396.24 69.1776 397.341 71.1272 398.808 72.8264C400.268 74.5171 401.964 75.7834 403.898 76.626C405.836 77.4705 408.026 77.8936 410.466 77.8936C412.908 77.8936 415.104 77.4705 417.051 76.626Z" fill="#18354A"/>
<path d="M359.97 31.147C362.619 32.2008 364.968 33.7798 367.013 35.8826C369.067 37.9958 370.606 40.7349 371.628 44.0992C372.638 47.4256 373.143 51.3584 373.143 55.8956V88.9335H359.642V56.008C359.642 53.5669 359.399 51.4268 358.912 49.5883C358.433 47.7792 357.72 46.2594 356.772 45.0309C354.902 42.6063 352.105 41.3931 348.384 41.3931C346.393 41.3931 344.62 41.7405 343.065 42.4342C341.516 43.126 340.17 44.1652 339.03 45.5506C336.717 48.3629 335.559 52.2596 335.559 57.2383V88.9335H321.946V56.008C321.946 53.5327 321.697 51.37 321.202 49.5211C320.715 47.7059 319.988 46.1923 319.025 44.9833C318.074 43.7903 316.902 42.8951 315.513 42.2998C314.104 41.6954 312.457 41.3931 310.575 41.3931C308.626 41.3931 306.884 41.7521 305.352 42.4702C303.824 43.1864 302.486 44.2665 301.342 45.7105C300.188 47.1673 299.32 48.877 298.74 50.8382C298.155 52.8195 297.862 55.0652 297.862 57.5735V88.9335H284.361V30.2409H296.178L297.353 36.804C299.252 34.6236 301.431 32.9354 303.888 31.7392C306.778 30.3337 310.049 29.6107 313.702 29.5729L313.707 29.5698C315.77 29.5698 317.719 29.7921 319.55 30.2354C321.388 30.6799 323.098 31.3472 324.68 32.2344C326.277 33.1295 327.689 34.2597 328.916 35.6225C329.878 36.691 330.726 37.9048 331.458 39.2634C332.332 37.9915 333.309 36.8351 334.386 35.7959C335.751 34.4783 337.283 33.3462 338.979 32.4023C340.679 31.4559 342.55 30.7458 344.59 30.2744C346.622 29.8049 348.818 29.5698 351.18 29.5698C354.397 29.5698 357.329 30.0961 359.97 31.147Z" fill="#18354A"/>
<path d="M273.707 76.9985H276.766V88.9335H269.68C267.755 88.9335 266.085 88.7271 264.673 88.3156C263.218 87.8912 262.039 87.2483 261.138 86.3874C260.238 85.5283 259.563 84.4763 259.115 83.2325C258.874 82.5645 258.699 81.8447 258.59 81.0717C256.589 83.6538 254.233 85.6516 251.523 87.0633C248.269 88.7571 244.515 89.6046 240.261 89.6046C236.994 89.6046 234.038 89.2211 231.395 88.4548C228.736 87.6849 226.401 86.526 224.392 84.9806C222.363 83.42 220.839 81.562 219.821 79.409C218.806 77.261 218.298 74.8291 218.298 72.1151C218.298 69.0683 218.842 66.3634 219.931 64.0029C221.022 61.6327 222.661 59.6189 224.845 57.9612C227.009 56.3194 229.656 55.0896 232.785 54.2739C235.887 53.4649 239.461 53.0607 243.505 53.0607H257.225V50.3033C257.225 48.7964 256.967 47.4605 256.451 46.2985C255.936 45.1427 255.163 44.1426 254.133 43.3018C253.088 42.4488 251.836 41.8065 250.381 41.3766C248.903 40.9401 247.207 40.7221 245.295 40.7221C243.6 40.7221 242.061 40.9052 240.679 41.2704C239.311 41.6318 238.09 42.1734 237.019 42.8927C235.961 43.6046 235.116 44.4314 234.487 45.3698C233.864 46.3004 233.448 47.3524 233.242 48.5235L233.138 49.1114H219.901L219.982 48.3293C220.29 45.3588 221.103 42.7169 222.419 40.404C223.737 38.0868 225.56 36.1043 227.885 34.4569C230.194 32.8218 232.851 31.5963 235.855 30.7831C238.843 29.9746 242.177 29.5698 245.854 29.5698C249.762 29.5698 253.232 30.0284 256.264 30.943C259.323 31.8662 261.936 33.2565 264.101 35.1108C266.277 36.9762 267.909 39.2493 268.996 41.9267C270.074 44.5858 270.614 47.6393 270.614 51.086V73.6818C270.614 74.837 270.866 75.6827 271.371 76.2163C271.863 76.7371 272.643 76.9985 273.707 76.9985ZM257.227 64.7325L257.225 63.4296H242.946C241.138 63.4296 239.545 63.6042 238.168 63.9528C236.819 64.2942 235.677 64.8021 234.746 65.4744C233.839 66.1296 233.159 66.9386 232.708 67.8984C232.251 68.8717 232.022 70.0171 232.022 71.3323C232.022 72.4582 232.236 73.4657 232.662 74.3529C233.092 75.2431 233.738 76.0271 234.6 76.7036C235.481 77.3917 236.523 77.9101 237.729 78.2563C238.953 78.6116 240.357 78.7881 241.939 78.7881C244.358 78.7881 246.505 78.4651 248.378 77.8203C250.229 77.1829 251.816 76.2292 253.138 74.9604C254.463 73.6892 255.466 72.2042 256.145 70.5092C256.829 68.8021 257.191 66.8769 257.227 64.7325Z" fill="#18354A"/>
<path d="M162.28 41.5774V30.2407H210.569V39.8182L179.388 76.8866H212.024V88.9334H160.938V79.3558L192.119 42.2875H162.28V41.5774Z" fill="#18354A"/>
<path d="M369.752 106.167V128.146H373.143V106.167H369.752Z" fill="#18354A"/>
<path d="M352.247 115.791C351.588 117.036 351.259 118.486 351.259 120.139C351.259 121.773 351.599 123.206 352.279 124.441C352.96 125.676 353.923 126.633 355.168 127.314C356.413 127.994 357.873 128.334 359.548 128.334C361.474 128.334 363.08 127.811 364.368 126.765C365.655 125.717 366.445 124.378 366.738 122.746H363.347C363.117 123.645 362.646 124.342 361.934 124.833C361.222 125.325 360.344 125.571 359.296 125.571C357.978 125.571 356.921 125.163 356.125 124.347C355.33 123.53 354.891 122.421 354.807 121.018V120.83H366.927C366.99 120.39 367.021 119.962 367.021 119.543C367 117.994 366.65 116.644 365.969 115.493C365.289 114.341 364.357 113.451 363.174 112.823C361.992 112.196 360.626 111.881 359.077 111.881C357.549 111.881 356.193 112.221 355.011 112.902C353.828 113.582 352.907 114.545 352.247 115.791ZM363.567 118.35H354.933C355.058 117.219 355.524 116.314 356.33 115.634C357.136 114.953 358.093 114.613 359.202 114.613C360.395 114.613 361.385 114.943 362.17 115.602C362.955 116.261 363.42 117.177 363.567 118.35Z" fill="#18354A"/>
<path d="M334.743 112.07L340.677 128.146H344.822L350.756 112.07H347.177L342.813 124.503L338.385 112.07H334.743Z" fill="#18354A"/>
<path d="M334.994 125.194H334.335C333.623 125.194 333.267 124.818 333.267 124.064V117.722C333.267 115.838 332.681 114.394 331.508 113.389C330.336 112.384 328.672 111.881 326.516 111.881C324.486 111.881 322.842 112.326 321.587 113.216C320.33 114.105 319.619 115.357 319.451 116.968H322.779C322.905 116.256 323.287 115.686 323.926 115.256C324.564 114.828 325.375 114.613 326.359 114.613C327.468 114.613 328.338 114.87 328.965 115.382C329.593 115.895 329.907 116.602 329.907 117.501V118.475H325.857C323.617 118.475 321.911 118.92 320.739 119.809C319.567 120.699 318.98 121.971 318.98 123.624C318.98 125.09 319.525 126.241 320.613 127.078C321.702 127.916 323.146 128.334 324.946 128.334C327.27 128.334 329.039 127.414 330.252 125.571C330.252 126.409 330.483 127.047 330.944 127.486C331.404 127.926 332.157 128.146 333.204 128.146H334.994V125.194ZM329.907 120.987V121.552C329.886 122.808 329.484 123.813 328.698 124.567C327.913 125.32 326.82 125.697 325.417 125.697C324.496 125.697 323.769 125.488 323.235 125.069C322.701 124.65 322.435 124.095 322.435 123.405C322.435 122.61 322.717 122.008 323.282 121.6C323.847 121.191 324.653 120.987 325.7 120.987H329.907Z" fill="#18354A"/>
<path d="M318.07 112.07H317.316C316.082 112.07 315.097 112.285 314.365 112.713C313.633 113.142 313.036 113.734 312.576 114.488L312.198 112.07H309.185V128.146H312.576V120.076C312.576 118.674 312.89 117.517 313.517 116.607C314.146 115.696 315.161 115.241 316.563 115.241H318.07V112.07Z" fill="#18354A"/>
<path d="M298.867 115.053V123.781C298.867 125.267 299.218 126.366 299.919 127.078C300.62 127.79 301.735 128.146 303.263 128.146H306.528V125.163H303.954C303.347 125.163 302.917 125.032 302.666 124.77C302.416 124.509 302.29 124.064 302.29 123.436V115.053H306.152V112.07H302.29V107.58H298.867V112.07H296.072V115.053H298.867Z" fill="#18354A"/>
<path d="M275.008 122.839H271.742C271.784 124.556 272.47 125.9 273.799 126.874C275.128 127.848 276.87 128.334 279.026 128.334C280.303 128.334 281.455 128.13 282.48 127.722C283.506 127.313 284.312 126.728 284.898 125.964C285.485 125.2 285.777 124.315 285.777 123.31C285.777 122.18 285.495 121.285 284.93 120.626C284.365 119.966 283.611 119.485 282.669 119.182C281.727 118.878 280.565 118.653 279.183 118.506C278.158 118.381 277.414 118.271 276.954 118.177C276.494 118.083 276.111 117.915 275.808 117.674C275.505 117.434 275.353 117.073 275.353 116.591C275.353 115.943 275.657 115.429 276.264 115.053C276.87 114.676 277.666 114.488 278.65 114.488C279.634 114.488 280.45 114.723 281.099 115.194C281.748 115.665 282.114 116.267 282.198 116.999H285.495C285.391 115.367 284.705 114.1 283.438 113.2C282.172 112.3 280.524 111.85 278.493 111.85C277.258 111.85 276.154 112.059 275.18 112.478C274.207 112.897 273.443 113.488 272.888 114.252C272.334 115.016 272.056 115.89 272.056 116.874C272.056 117.92 272.334 118.752 272.888 119.37C273.443 119.988 274.175 120.438 275.086 120.72C275.997 121.002 277.153 121.228 278.556 121.395C279.581 121.521 280.34 121.641 280.833 121.757C281.324 121.871 281.717 122.065 282.01 122.337C282.303 122.609 282.449 123.017 282.449 123.562C282.449 124.21 282.13 124.729 281.492 125.116C280.853 125.503 280.021 125.697 278.995 125.697C277.844 125.697 276.907 125.43 276.185 124.896C275.463 124.362 275.07 123.677 275.008 122.839Z" fill="#18354A"/>
<path d="M259.09 122.839H255.824C255.866 124.556 256.552 125.9 257.881 126.874C259.21 127.848 260.952 128.334 263.108 128.334C264.385 128.334 265.537 128.13 266.562 127.722C267.588 127.313 268.394 126.728 268.98 125.964C269.567 125.2 269.859 124.315 269.859 123.31C269.859 122.18 269.577 121.285 269.012 120.626C268.447 119.966 267.693 119.485 266.751 119.182C265.809 118.878 264.647 118.653 263.265 118.506C262.24 118.381 261.496 118.271 261.037 118.177C260.576 118.083 260.194 117.915 259.89 117.674C259.587 117.434 259.435 117.073 259.435 116.591C259.435 115.943 259.739 115.429 260.346 115.053C260.952 114.676 261.748 114.488 262.732 114.488C263.716 114.488 264.532 114.723 265.181 115.194C265.83 115.665 266.196 116.267 266.28 116.999H269.577C269.473 115.367 268.787 114.1 267.52 113.2C266.254 112.3 264.606 111.85 262.575 111.85C261.34 111.85 260.236 112.059 259.262 112.478C258.289 112.897 257.525 113.488 256.97 114.252C256.416 115.016 256.138 115.89 256.138 116.874C256.138 117.92 256.416 118.752 256.97 119.37C257.525 119.988 258.257 120.438 259.168 120.72C260.079 121.002 261.235 121.228 262.638 121.395C263.663 121.521 264.422 121.641 264.915 121.757C265.406 121.871 265.799 122.065 266.092 122.337C266.385 122.609 266.531 123.017 266.531 123.562C266.531 124.21 266.212 124.729 265.574 125.116C264.935 125.503 264.103 125.697 263.077 125.697C261.926 125.697 260.989 125.43 260.267 124.896C259.545 124.362 259.152 123.677 259.09 122.839Z" fill="#18354A"/>
<path d="M238.978 115.791C238.319 117.036 237.989 118.486 237.989 120.139C237.989 121.773 238.329 123.206 239.01 124.441C239.69 125.676 240.653 126.633 241.899 127.314C243.144 127.994 244.604 128.334 246.279 128.334C248.204 128.334 249.811 127.811 251.098 126.765C252.386 125.717 253.176 124.378 253.469 122.746H250.078C249.847 123.645 249.377 124.342 248.665 124.833C247.953 125.325 247.074 125.571 246.027 125.571C244.709 125.571 243.652 125.163 242.856 124.347C242.061 123.53 241.621 122.421 241.537 121.018V120.83H253.657C253.72 120.39 253.751 119.962 253.751 119.543C253.731 117.994 253.38 116.644 252.7 115.493C252.019 114.341 251.088 113.451 249.905 112.823C248.723 112.196 247.357 111.881 245.808 111.881C244.279 111.881 242.924 112.221 241.742 112.902C240.559 113.582 239.638 114.545 238.978 115.791ZM250.298 118.35H241.663C241.788 117.219 242.254 116.314 243.06 115.634C243.866 114.953 244.824 114.613 245.934 114.613C247.126 114.613 248.115 114.943 248.9 115.602C249.686 116.261 250.151 117.177 250.298 118.35Z" fill="#18354A"/>
<path d="M233.704 113.64C232.5 112.468 230.946 111.881 229.041 111.881C226.823 111.881 225.106 112.646 223.892 114.174L223.515 112.07H220.563V128.146H223.955V120.045C223.955 118.412 224.336 117.13 225.101 116.199C225.865 115.267 226.917 114.802 228.256 114.802C229.512 114.802 230.465 115.2 231.113 115.995C231.762 116.79 232.087 117.952 232.087 119.48V128.146H235.509V119.291C235.509 116.696 234.907 114.812 233.704 113.64Z" fill="#18354A"/>
<path d="M213.844 112.07V128.146H217.235V112.07H213.844Z" fill="#18354A"/>
<path d="M217.015 106.214C216.617 105.827 216.125 105.633 215.539 105.633C214.953 105.633 214.461 105.827 214.063 106.214C213.666 106.601 213.467 107.088 213.467 107.674C213.467 108.26 213.666 108.747 214.063 109.134C214.461 109.521 214.953 109.715 215.539 109.715C216.125 109.715 216.617 109.521 217.015 109.134C217.412 108.747 217.611 108.26 217.611 107.674C217.611 107.088 217.412 106.601 217.015 106.214Z" fill="#18354A"/>
<path d="M200.311 122.839H197.046C197.087 124.556 197.773 125.9 199.102 126.874C200.432 127.848 202.174 128.334 204.33 128.334C205.607 128.334 206.758 128.13 207.784 127.722C208.81 127.313 209.616 126.728 210.201 125.964C210.788 125.2 211.081 124.315 211.081 123.31C211.081 122.18 210.798 121.285 210.233 120.626C209.668 119.966 208.914 119.485 207.972 119.182C207.031 118.878 205.869 118.653 204.487 118.506C203.461 118.381 202.718 118.271 202.258 118.177C201.797 118.083 201.415 117.915 201.112 117.674C200.808 117.434 200.656 117.073 200.656 116.591C200.656 115.943 200.96 115.429 201.567 115.053C202.174 114.676 202.969 114.488 203.953 114.488C204.938 114.488 205.754 114.723 206.402 115.194C207.051 115.665 207.418 116.267 207.501 116.999H210.798C210.694 115.367 210.008 114.1 208.742 113.2C207.475 112.3 205.827 111.85 203.796 111.85C202.561 111.85 201.457 112.059 200.484 112.478C199.51 112.897 198.746 113.488 198.192 114.252C197.637 115.016 197.36 115.89 197.36 116.874C197.36 117.92 197.637 118.752 198.192 119.37C198.746 119.988 199.479 120.438 200.389 120.72C201.3 121.002 202.456 121.228 203.859 121.395C204.885 121.521 205.643 121.641 206.136 121.757C206.627 121.871 207.02 122.065 207.313 122.337C207.606 122.609 207.752 123.017 207.752 123.562C207.752 124.21 207.433 124.729 206.795 125.116C206.156 125.503 205.324 125.697 204.299 125.697C203.147 125.697 202.211 125.43 201.488 124.896C200.767 124.362 200.374 123.677 200.311 122.839Z" fill="#18354A"/>
<path d="M194.282 112.07H190.892V120.045C190.892 121.698 190.525 123.001 189.793 123.954C189.06 124.906 188.045 125.383 186.747 125.383C185.512 125.383 184.58 124.975 183.952 124.158C183.324 123.342 183.01 122.148 183.01 120.579V112.07H179.619V120.924C179.619 123.52 180.206 125.403 181.378 126.576C182.55 127.748 184.078 128.334 185.962 128.334C188.056 128.334 189.709 127.591 190.923 126.105L191.3 128.146H194.282V112.07Z" fill="#18354A"/>
<path d="M173.466 112.87C172.314 112.211 171.006 111.881 169.541 111.881C167.343 111.881 165.605 112.74 164.329 114.456V106.167H160.938V128.146H163.889L164.298 125.822C164.842 126.597 165.554 127.209 166.432 127.659C167.312 128.109 168.347 128.334 169.541 128.334C171.006 128.334 172.314 127.989 173.466 127.298C174.617 126.608 175.517 125.639 176.166 124.394C176.815 123.148 177.139 121.719 177.139 120.108C177.139 118.412 176.815 116.947 176.166 115.712C175.517 114.477 174.617 113.53 173.466 112.87ZM172.382 123.986C171.514 124.98 170.378 125.477 168.976 125.477C167.573 125.477 166.442 124.975 165.585 123.97C164.727 122.965 164.298 121.667 164.298 120.076C164.298 118.506 164.727 117.23 165.585 116.246C166.442 115.262 167.573 114.77 168.976 114.77C170.378 114.77 171.514 115.267 172.382 116.261C173.251 117.256 173.685 118.538 173.685 120.108C173.685 121.699 173.251 122.991 172.382 123.986Z" fill="#18354A"/>
</svg>
